Coordinates
version=1
nRows=17
nColumns=38
inDegrees=yes

Units are S.I. units (second, meters, Newtons, ...)
Angles are in degrees.

endheader
time	pelvis_tilt	pelvis_list	pelvis_rotation	pelvis_tx	pelvis_ty	pelvis_tz	hip_flexion_r	hip_adduction_r	hip_rotation_r	knee_angle_r	ankle_angle_r	subtalar_angle_r	mtp_angle_r	hip_flexion_l	hip_adduction_l	hip_rotation_l	knee_angle_l	ankle_angle_l	subtalar_angle_l	mtp_angle_l	lumbar_extension	lumbar_bending	lumbar_rotation	arm_flex_r	arm_add_r	arm_rot_r	elbow_flex_r	pro_sup_r	wrist_flex_r	wrist_dev_r	arm_flex_l	arm_add_l	arm_rot_l	elbow_flex_l	pro_sup_l	wrist_flex_l	wrist_dev_l
      5.84000000	     -5.61898662	      2.22479437	      0.74764646	      0.09879216	      0.89002385	      2.58870442	     -0.74263185	     -4.46750971	     -0.93317268	    -46.86805708	    -14.47118752	     -0.00019648	      0.00000000	     22.13656642	      1.52093901	      1.51817362	    -21.05522283	    -11.47075235	     -0.00006001	      0.00000000	      0.08846380	     -2.79914732	      6.36388262	      3.91518447	    -15.29138481	     26.34733363	    109.23937153	    102.96830155	     -0.00008972	     -0.00003363	    -28.46777213	    -14.21591571	     -7.36577870	    104.89599427	  50260.76520464	     -0.00004686	     -0.00000002
      5.85000000	     -5.22858713	      2.71708019	      0.66249811	      0.09754755	      0.88266883	      2.58620035	      0.71542753	     -5.11057328	     -0.76658545	    -51.47351928	    -11.54609006	     -0.00020559	      0.00000000	     21.72679731	      2.45516364	      2.69110116	    -24.02393030	     -6.80109277	     -0.00006178	      0.00000000	     -0.42524304	     -3.32555654	      5.79879408	      3.31214009	    -15.63595824	     26.80204528	    110.35182697	    103.61641151	     -0.00008992	     -0.00003634	    -27.34821981	    -14.86630184	     -6.77940283	    104.73185621	  50260.80735475	     -0.00004875	     -0.00000257
      5.86000000	     -4.73924877	      3.05765827	      0.60390824	      0.09566520	      0.87453347	      2.58378806	      2.23895215	     -5.61035660	     -0.65659724	    -56.22831316	     -8.29904965	     -0.00021122	      0.00000000	     21.41958060	      3.27798274	      3.85891814	    -27.05687288	     -2.32753822	     -0.00006677	      0.00000000	     -1.16058890	     -3.70147557	      5.24753968	      2.66694615	    -16.02573196	     27.08625074	    111.37990361	    103.58976844	     -0.00009250	     -0.00003913	    -25.87776620	    -15.54977199	     -5.89160488	    104.59481917	  50260.84221255	     -0.00004820	     -0.00000240
      5.87000000	     -4.26449386	      3.46529867	      0.53421623	      0.09357981	      0.86605162	      2.58126349	      3.86681761	     -6.21069894	     -0.52882603	    -60.94722638	     -5.30395860	     -0.00020873	      0.00000000	     21.15017926	      4.19341940	      4.60510228	    -30.09517609	      1.84413215	     -0.00007167	      0.00000000	     -1.92960077	     -4.13476585	      4.65352134	      1.90830652	    -16.38392113	     27.13876536	    112.18571452	    103.54645245	     -0.00009246	     -0.00003984	    -24.18538381	    -16.24382369	     -4.93718313	    104.16104055	  50260.89901754	     -0.00004787	     -0.00000127
      5.88000000	     -3.50903000	      3.87530404	      0.34826692	      0.09093412	      0.85791338	      2.57898054	      5.38983660	     -6.94387934	     -0.48809840	    -65.55732117	     -2.32320839	     -0.00020013	      0.00000000	     20.55469257	      5.07286082	      4.92577779	    -33.01142711	      5.64477811	     -0.00007692	      0.00000000	     -3.13250110	     -4.60454301	      4.20472869	      1.09441401	    -16.72048206	     26.98388047	    112.69942768	    103.55187687	     -0.00009547	     -0.00004255	    -22.03025699	    -16.92855272	     -3.85030643	    103.48173886	  50260.97530299	     -0.00004530	     -0.00000257
      5.89000000	     -2.66114716	      4.18948410	      0.29933700	      0.08792904	      0.84994861	      2.57673520	      6.84133178	     -7.62434389	     -0.65691639	    -69.97640523	      0.54165918	     -0.00019078	      0.00000000	     19.72566276	      5.92270253	      5.25374650	    -35.52759345	      9.20930689	     -0.00008571	      0.00000000	     -4.51282637	     -4.98630478	      3.59033119	      0.22579410	    -17.02279804	     26.68010002	    112.90309743	    103.31221554	     -0.00009263	     -0.00004248	    -19.85002502	    -17.66694198	     -2.77168251	    102.76319699	  50261.05290937	     -0.00004937	     -0.00000148
      5.90000000	     -1.77055206	      4.46193082	      0.12066156	      0.08411655	      0.84250065	      2.57507448	      8.39433910	     -8.20528963	     -0.61349793	    -74.17536512	      2.91724318	     -0.00018281	      0.00000000	     18.69614375	      6.58642661	      5.19716454	    -37.66622041	     12.35307933	     -0.00009470	      0.00000000	     -6.05777712	     -5.42278402	      2.99857462	     -0.57008104	    -17.27048931	     26.23825962	    112.74406471	    102.89383168	     -0.00009200	     -0.00004260	    -17.22253037	    -18.37625440	     -1.34633471	    102.05403011	  50261.13841316	     -0.00004705	     -0.00000013
      5.91000000	     -1.68450034	      5.13827052	     -0.09533412	      0.08025326	      0.83545598	      2.57398946	     10.93350463	     -9.13597854	     -0.35834979	    -78.05737432	      5.01345099	     -0.00016962	      0.00000000	     18.24919995	      7.55951282	      4.86443771	    -39.23898713	     14.54413163	     -0.00009968	      0.00000000	     -6.66105105	     -6.36963579	      2.30019412	     -1.49277996	    -17.21945036	     25.77644096	    111.92420430	    102.72789330	     -0.00009093	     -0.00003590	    -14.70079285	    -19.09091581	     -0.14884806	    100.88509649	  50260.89890532	     -0.00004910	     -0.00000228
      5.92000000	     -2.46541487	      5.73825991	     -0.30029733	      0.07714843	      0.82949045	      2.57432535	     14.31716623	     -9.63906463	      0.13823549	    -81.28237328	      6.70171002	     -0.00016521	      0.00000000	     18.28741294	      8.20793925	      4.53077533	    -40.03197422	     16.27898150	     -0.00010172	      0.00000000	     -6.09591057	     -7.39719890	      1.70697352	     -2.78255766	    -16.85220356	     25.25154218	    110.35805540	    101.88970517	     -0.00008045	     -0.00002844	    -12.21019354	    -19.98650633	      1.28405508	     99.40054817	  50260.71283516	     -0.00004899	     -0.00000311
      5.93000000	     -3.09770892	      6.05860111	     -0.88172775	      0.07445713	      0.82500688	      2.57588951	     17.52757656	     -9.49629910	      0.98050894	    -83.87173247	      8.10741148	     -0.00016316	      0.00000000	     17.93087204	      8.33779659	      3.98355071	    -40.50425000	     17.81973907	     -0.00009735	      0.00000000	     -5.60019139	     -8.17734313	      1.40392450	     -4.02107976	    -16.38874641	     24.76303736	    108.49673032	    101.57280346	     -0.00007477	     -0.00001891	     -9.76546127	    -20.86278315	      2.66281329	     97.99322066	  50260.84651938	     -0.00005003	     -0.00000061
      5.94000000	     -3.25989896	      6.10433528	     -1.66237214	      0.07218561	      0.82241400	      2.57773464	     20.17124618	     -8.91531417	      1.78872144	    -85.71650340	      9.45284515	     -0.00014975	      0.00000000	     16.81627327	      8.06508966	      3.25883387	    -40.58712572	     18.96864115	     -0.00009567	      0.00000000	     -5.53661274	     -8.57335680	      1.23071350	     -5.19582130	    -16.03539240	     24.24593807	    106.64370151	    101.30437219	     -0.00006597	     -0.00000816	     -7.35036585	    -21.54471416	      3.96025182	     96.87413544	  50260.71220408	     -0.00004841	     -0.00000258
      5.95000000	     -3.21790005	      5.86624010	     -2.43626936	      0.07019094	      0.82125767	      2.57977200	     22.37198440	     -8.01069192	      2.42255657	    -86.93816861	     10.33579858	     -0.00014643	      0.00000000	     15.25704089	      7.52137853	      2.59473147	    -40.27253508	     19.57728175	     -0.00008893	      0.00000000	     -5.67895077	     -8.63518042	      1.05629602	     -6.36372860	    -15.76702914	     23.62961496	    104.93664753	    101.94572092	     -0.00005976	      0.00000019	     -4.95432269	    -22.05981688	      5.22563051	     95.95093797	  50260.80583372	     -0.00004963	     -0.00000471
      5.96000000	     -3.01198348	      5.65721775	     -3.22681576	      0.06898466	      0.82145011	      2.58122395	     24.21812347	     -7.30865847	      2.84812504	    -87.43944643	     11.26886258	     -0.00014261	      0.00000000	     13.29377116	      7.08018328	      1.90018572	    -39.51484993	     19.80121402	     -0.00008511	      0.00000000	     -5.88632774	     -8.61873427	      0.98835834	     -7.77721192	    -15.66195486	     22.71057503	    103.61226343	    103.13071047	     -0.00005865	     -0.00000280	     -2.75828144	    -22.27078826	      6.27874672	     95.32559316	  50260.87003534	     -0.00004942	     -0.00000474
      5.97000000	     -2.75385147	      5.03761221	     -3.90700158	      0.06823221	      0.82298599	      2.58305745	     25.70353187	     -6.15673638	      2.90810800	    -87.15894132	     11.98887679	     -0.00013469	      0.00000000	     11.07115911	      6.25669665	      1.45084930	    -38.50689148	     19.47788301	     -0.00008143	      0.00000000	     -6.18782391	     -8.14994363	      0.80331740	     -9.11432300	    -15.78842843	     21.88339018	    102.58804503	    106.02204599	     -0.00004668	      0.00000408	     -0.82668205	    -22.41103752	      7.07389405	     95.05605389	  50260.70324246	     -0.00005107	     -0.00000189
      5.98000000	     -2.85332582	      4.44041390	     -4.40896502	      0.06734814	      0.82514831	      2.58453372	     27.46155367	     -5.19934344	      2.62068207	    -86.34323101	     12.57820148	     -0.00012754	      0.00000000	      9.19896185	      5.56721689	      1.34903769	    -37.37911937	     18.70063103	     -0.00007877	      0.00000000	     -6.09135723	     -7.57403845	      0.63200705	    -10.60491185	    -16.02126176	     20.83912686	    102.04493696	    107.51076206	     -0.00003663	      0.00000500	      0.94965807	    -22.33454558	      7.72679711	     95.03210657	  50260.62467522	     -0.00004737	     -0.00000348
      5.99000000	     -2.99507859	      3.76547490	     -4.94052368	      0.06690589	      0.82838208	      2.58617283	     29.03082060	     -4.11908931	      2.28264222	    -84.83192787	     13.04167032	     -0.00012028	      0.00000000	      7.18019566	      4.79084455	      1.23237705	    -35.88298696	     17.50326877	     -0.00007472	      0.00000000	     -5.92969914	     -6.90746166	      0.55686242	    -12.19481531	    -16.37837128	     19.70959946	    101.94575226	    107.05080589	     -0.00002617	      0.00000684	      2.55517064	    -22.14115430	      8.16307698	     95.45037407	  50260.60651343	     -0.00004741	     -0.00000148
      6.00000000	     -3.23656193	      3.22878345	     -5.43527892	      0.06677402	      0.83246985	      2.58766566	     30.52811151	     -3.26135464	      1.86397839	    -82.76883070	     13.44234264	     -0.00011600	      0.00000000	      5.19385148	      4.23514969	      1.26340004	    -34.19134952	     15.61685649	     -0.00006852	      0.00000000	     -5.62057076	     -6.32278668	      0.47379168	    -13.80897477	    -16.83402343	     18.58492564	    102.14127916	    105.96563443	     -0.00002018	      0.00000924	      3.80815703	    -21.78049462	      8.26609538	     96.00150849	  50260.57175709	     -0.00004640	     -0.00000376
